/* XPM */
static char *result[] = {
/* columns rows colors chars-per-pixel */
"64 64 255 2 ",
"   c #060607",
".  c #0C0C0C",
"X  c #18100D",
"o  c #0D0C12",
"O  c #120C18",
"+  c #0C1115",
"@  c #0F1419",
"#  c #121212",
"$  c #131319",
"%  c #161719",
"&  c #18171D",
"*  c #1B1A1D",
"=  c #2A1716",
"-  c #20231D",
";  c #131520",
":  c #181623",
">  c #151924",
",  c #1B1A25",
"<  c #161929",
"1  c #1E1D2A",
"2  c #231D23",
"3  c #211F2C",
"4  c #341D33",
"5  c #1D212B",
"6  c #1D3532",
"7  c #262527",
"8  c #23212D",
"9  c #372929",
"0  c #262431",
"q  c #292633",
"w  c #252834",
"e  c #2B2A35",
"r  c #2E2C39",
"t  c #332D38",
"y  c #363438",
"u  c #33313E",
"i  c #53201C",
"p  c #4C2D2E",
"a  c #583939",
"s  c #6F3237",
"d  c #10553B",
"f  c #1C5E3C",
"g  c #604339",
"h  c #2A1F41",
"j  c #352F49",
"k  c #363442",
"l  c #3A3745",
"z  c #3D3B4B",
"x  c #433C4A",
"c  c #453E50",
"v  c #733C46",
"b  c #135B43",
"n  c #3C474F",
"m  c #0C6B48",
"M  c #16674A",
"N  c #087647",
"B  c #0B744B",
"V  c #14744C",
"C  c #1A6753",
"Z  c #1D6B53",
"A  c #0C7C52",
"S  c #157654",
"D  c #157D5A",
"F  c #1B7B5B",
"G  c #256B58",
"H  c #38635A",
"J  c #23775C",
"K  c #2C7764",
"L  c #337969",
"P  c #38786F",
"I  c #474448",
"U  c #53494F",
"Y  c #484655",
"T  c #6D4D4C",
"R  c #775657",
"E  c #69625D",
"W  c #545268",
"Q  c #6B5C63",
"!  c #706366",
"~  c #8B2A2F",
"^  c #8E4F3B",
"/  c #A03A45",
"(  c #8D5856",
")  c #A75958",
"_  c #A86658",
"`  c #B4715A",
"'  c #936F6F",
"]  c #A86C67",
"[  c #AD716C",
"{  c #B7766A",
"}  c #AB7875",
"|  c #B77A75",
" . c #CF4A55",
".. c #DB5866",
"X. c #CB746C",
"o. c #F4626E",
"O. c #098657",
"+. c #0E8C53",
"@. c #18845B",
"#. c #1C955A",
"$. c #178C65",
"%. c #0A9965",
"&. c #0C9D6A",
"*. c #179667",
"=. c #119D6D",
"-. c #1A9A73",
";. c #298568",
":. c #31836D",
">. c #23976B",
",. c #398778",
"<. c #289976",
"1. c #33987D",
"2. c #0CA36C",
"3. c #0BA869",
"4. c #14A56D",
"5. c #0FB46A",
"6. c #0CAB74",
"7. c #14A373",
"8. c #19A977",
"9. c #1BA67D",
"0. c #0BB375",
"q. c #0CB878",
"w. c #14B679",
"e. c #27A673",
"r. c #26A67A",
"t. c #24B47A",
"y. c #41877D",
"u. c #18C47C",
"i. c #15CF78",
"p. c #B7905F",
"a. c #AF8D7A",
"s. c #BA857C",
"d. c #C6867A",
"f. c #D48B7A",
"g. c #F4817E",
"h. c #786F84",
"j. c #907A87",
"k. c #B67980",
"l. c #C27589",
"z. c #3A9683",
"x. c #17B080",
"c. c #19BB86",
"v. c #28AB84",
"b. c #36A988",
"n. c #22BA86",
"m. c #27B988",
"M. c #35B48C",
"N. c #37B895",
"B. c #488D85",
"V. c #479489",
"C. c #4D9B90",
"Z. c #539A94",
"A. c #44A68B",
"S. c #4BA995",
"D. c #52A995",
"F. c #57A69B",
"G. c #47B798",
"H. c #6EA298",
"J. c #59B1A5",
"K. c #19C588",
"L. c #14C88C",
"P. c #1DD486",
"I. c #1CD396",
"U. c #25C689",
"Y. c #32CE8D",
"T. c #27D58B",
"R. c #26C995",
"E. c #37C699",
"W. c #29D799",
"Q. c #36DA97",
"!. c #38E59A",
"~. c #31E899",
"^. c #39C8A3",
"/. c #29D8A2",
"(. c #38DAA6",
"). c #35E5A9",
"_. c #39E4A8",
"`. c #47CF9C",
"'. c #46C8A6",
"]. c #55C6AC",
"[. c #45DAA9",
"{. c #51DBA8",
"}. c #55D2B0",
"|. c #47E6A8",
" X c #54EDAC",
".X c #49E7B5",
"XX c #57E9BA",
"oX c #5AF3B5",
"OX c #65F0AF",
"+X c #68F5B9",
"@X c #75F8BB",
"#X c #5CEDC2",
"$X c #66F2C4",
"%X c #6CF4C4",
"&X c #73F4CB",
"*X c #78F7C9",
"=X c #B88784",
"-X c #B19190",
";X c #A098A4",
":X c #C78987",
">X c #D68C8F",
",X c #CA9387",
"<X c #D7988B",
"1X c #CA9997",
"2X c #D79C98",
"3X c #E49990",
"4X c #D7AE96",
"5X c #DBA398",
"6X c #E4A699",
"7X c #F0AB99",
"8X c #D59AA7",
"9X c #DBA8A4",
"0X c #D3ADAC",
"qX c #E8ABA4",
"wX c #F3ACA2",
"eX c #E9B2A8",
"rX c #F4B6A9",
"tX c #E8B7B5",
"yX c #F8BCB6",
"uX c #E1C5A0",
"iX c #E2C0BF",
"pX c #FCC4B8",
"aX c #D4BEC0",
"sX c #F0BCC4",
"dX c #9EC0C6",
"fX c #86FDC9",
"gX c #93FDCB",
"hX c #84FCD3",
"jX c #8BFED3",
"kX c #8EFDD8",
"lX c #97FDD5",
"zX c #94FEDA",
"xX c #9CFEDC",
"cX c #A4FDDD",
"vX c #AAFCDA",
"bX c #B3FDDF",
"nX c #9EFEE3",
"mX c #A8FDE3",
"MX c #B4FDE4",
"NX c #B9FDE5",
"BX c #B7FDEA",
"VX c #F8C8C6",
"CX c #F5D1CF",
"ZX c #E4D3E0",
"AX c #C0FAE1",
"SX c #C3FEEA",
"DX c #CDFDED",
"FX c #D1FBED",
"GX c #CAFDF1",
"HX c #D3FDF3",
"JX c #DAFCF4",
"KX c #FAE1E4",
"LX c #E3FEF5",
"PX c #E4FDFA",
"IX c #EAFCFB",
/* pixels */
"m d d d f b m @.Q.u.Z M G M H G r.M.L K ,.E.N.,.B.B.C.C.D.G.NXJXlXG.A.A.z.A.'.XX'.1.r.r.|.|.v.e.7.8..XhX*X#X$XoXK.3.4.2.%.%.%.5.",
"d d d d b b J oXvXfX#.Z G G G H M.m.:.K L M.^.b.C.Z.Z.F.D.D.cXJXbX].D.A.A.A.G.XX XG.z.b.(.[.r.e.r.>.w.|.%X+X.XI.w.5.5.4.3.3.3.T.",
"d d d d f V |.mXFXvXt.J G G G L M.N.,.P P b.N.G.J.Z.F.F.F.J.lXJXSX}.D.b.A.A.G.{.XX'.1.m.|.(.v.r.r.e.r.8.u.K.~.|.!.i.5.w.3.3.U.gX",
"+.f b d V Y.lXNXFXvX!.@.G G G L N.N.z.P ,.V.G.'.J.H.F.F.J.6 # # $ . * - - * G '.XXXX[.[.[.E.m.r.r.r.8.w.T.lXmXNXSXfXi.w.6.5..XkX",
" X@.b b V +XgX@XbXSX+X#.K G K L N.'.b.P B.B.G.].].J.H.+ + +     # * 9 7 * 7 - . `.[. X[.{.i.`.t.t.r.w.T.gXSXNXNXJXDX@Xi.0.3.I._.",
"vX~.m M V K.U.e.lXSXgX>.K L L P b.^.N.y.B.B.S.}.}.y.I # % # + e .   . 2 @ . . - y `.'. XOXOX Xt.n.t.t.|.SXFX+X!.NXIXAX!.q.3.6.3.",
"DXjX#.M M M Z #.fXDXvXu.:.L L P z.'.G.Z.B.Z.F.}.J.o 7 #     * 7 I * # # 7 t + - # {.fXbXFXFXvXOXY.t.K.*XJXNX!.T.fXJXJX*Xu.3.4.2.",
"SXMXW.V M b C J OXSXbX|.;.L P P z.G.}.Z.B.Z.H.}.$ O . . I   . y & % .   . % # . . X DXLXFXLXLXvX|.T.U.fXLXSX!.u.!.SXPXxXi.0.6.3.",
"bXSX+XS M b M F Y.MXSX@X>.:.:.y.y.S.].'.F.F.F.# 7 + e # * .   . % & 7 e . 9 % . # . f NX@XAXIXFXfXQ.T.fXJXDX Xu.T.cXIXBXT.0.0.3.",
"lXDXjX#.C C C Z e.cXDXjXt.,.:.y.y.V.J.}.J.J.* # * - . # * t .   . * 2 t . . I I 7 # - gX XgXLXLXvX|.U.*XLXJX@XU.U.hXPXGX|.u.0.0.",
"@XDXcX8.C C Z J >.fXDXvX`.1.,.y.y.B.S.J.}.].: W # . n X 7 , , 7 % 5 9 9 9 - 9 y . - * gX{. XAXIXFX@XQ.OXFXPXlXT.u.+XJXJXoXq.6.0.",
"|.SXMXT.M C M J *.@XSXSX@XXX`.,.B.B.Z.Z.J.Z.p 4 y = = # #   . * % p p T R i 9 9 - X % vX X{.vXLXLXgXT.|.MXIXbX~.P.|.DXJX@Xq.0.6.",
"T.NXNXQ.V C Z Z e.fXDXFXbXcXXXB.,.B.B.Z.Z.e * & # 1X' i X X 7 X = ( _ d.] R f.T p + - bXoX[.fXLXLXvXQ.u.xXPXGXoXT.!.SXJX+Xu.0.3.",
"u.NXbXU.Z C Z >.*XMXNXMXgXXXb.y.B.B.Z.Z.F.I 9 U s ' 4X,Xa.9 * t R s.,X<X6XpX7X<X-X5 - DX@X{.@XFXLXbX|.Y.+XHXPXxX~.+XGXSX!.u.0.0.",
"T.NXcX4.Z C Z $.XX+X|.Y.r.z.,.,.B.B.V.Z.&XU -X-X9X1XyXf.{ { | =Xa.s.,X5X7XpXwXrXp - 7 LXfX{. XAXIXbX!.t.Q.cXPXGXlXvXDXxXP.0.0.0.",
"lXMXOX+.M M Z G J >.M.XX%XXXN.B.z.B.C.].nX' -X-XCXpX<Xs.{ _ ` | ` { d.f.f.3Xf.6Xa.p 9 LXbXOX XAXIXAX!.Y.U. XmXHXSXNXcX_.i.q.0.0.",
"lX%X*.V M M G J F m.%X*XhXkXhX'.y.B.V.].&XQ 1XaX0X=X9X` _ _ _ _ ) _ { d.f.<X6XtX4X' U IXFX@X@XSXLXvXT.m.U.R._.@XfX*X~.i.K.q.q.q.",
"w.+.V M M Z Z Z K #XjX/.1.&XnX*Xb.B.B.Z.F.Q -XsXVXCXeXd.{ { { ] _ { ,XqX7X3X6XVXpX1Xg JXLXNXvXJXFXfXY.U.m.c.K.T.T. XhX).K.q.0.q.",
"*.8.8.*.S M Z Z :.jXjXr.:.E.jXxX[.1.B.B.F.' -XVXtX,Xs.0Xf.s.k.VX2XsXtX9X9X<XqXeXtX4XT vXLXLXFXSXlX|.m.m.n.n.n.L._.mXGXfXL.q.0.0.",
"K.w.I.U.-.C Z G r.zXhX<.L ,.*XmX%XB.V.V.C.T 8XsXj.p ' } a.k.-XtX2X-X-Xj.! R -XQ 6X5Xp OXgXvXvX*X!.R.U.m.m.K.c.(.zXJXIXmXP.q.0.q.",
"%.N 8./.R.@.C G <.zXkXm.:.:.}.mXhXM.V.B.H.E <X} KX1X9 , 2 g } { =X( 9 ! p 2XsXVX} 6Xg rX'.(.Q..X[.m.n.c.m.c.n.*XmXBXPXSX~.u.q.0.",
"A M Z U.W.t.Z F >.zXxX^.;.:.N.zXzX^.B.B.;Xi 5X0XCXs.= 7 p v [ | eX2X( 7 . a X.CXpX6X<Xg.^.E.|.*XXXm.n.v.m.c.U.%X*X+XHXHX XL.q.q.",
"A b b 7.(.K.F Z ;.&XnX.X:.K z.hXxX}.B.z.5XrX<X4Xv } T R ' i 1X{ VX9X) T R ] :X:XrX7XyXg.N.^.#XhX%XU.x.x.x.x.x.L.L.T.MXHX+XL.0.6.",
"V d b S c.R.D Z S (.kXXXK K L #XzX(.:.,.;XCX5XeX1XqXd.[ } ] 3XX.rXrX6X) [ <XrXqXrX7XwXrXb.(._..XXXm.-.>.-.*.-.*.&.q.*XBX+X6.%.%.",
"7.M M M U.(.7.F F R.zXkXM.;.:.XXnXXXz.B.y./ 7XeX:Xf.{ { [ >X3X` wXVXqX3XX.X.3X6XpXrX3X;X/.(.N..X$X^.v.<.-.-.-.=.4.8.%XBXlXu.3.2.",
"c.V m M c.|.c.J J <.hXmXXX,.z.#XnXXXz.z.V.~ 6XtXqXf.X.X.f.qXf.` <XwXtXqXd.>X3XyXVXrX..J.^.^.M.[.&X.Xv.x.v.x.x.9.8.w.|.NXNXQ.w.6.",
"I.B V M -.|.R.K F K XXmXhXE.r.hXkXN.z.z.b.yX4XVXyXwX>X8Xi 3XsX} 6X7XwXd.>XtXyXrXVXrXCXb.M.b.v./.&XXXc.v.v.-.7.=.4.8.W.MXAXOXw.6.",
"W.#.m Z -._.K.@.F F 9.&XkXhX&X*X#Xv.z.z.z.VX5XVXKX8X:X[ X tXqX1XyXyXyX>X) >XsXKXVXpXVXM.b.M.v.N.#X$Xc.9.9.7.7.7.=.6.i.lXGXfXu.5.",
"_.w.V M *.(.n.F F F F n.XX&X$X.Xx.1.,.z.z.C.-XrXtXl.[ _ ( 0X8X[ 8X1X9X2Xl.( 5XpXpXpXM.b.v.v.v.v..X&XR.7.7.7.=.=.2.8.w.jXHXNX*X#X",
"W.W.*.B 6./.9.D F @.F ;.$.<.r.Y.^.<.<.1.1.b.1X<X3X} R a ' U a R U R 1Xk.R ( { wXrXiX`.v.b.v.v.v.(.&X(.9.7.=.=.-.2.q..XcXSXNXxX&X",
"w./.R.c.U.U.@.S F F ;.$.$.>.Q.nXhXn.e.<.1.b.H.,X<X_ a tXCX:X) | 1X>X8XCXtXg ( 6X3XeX[.v.v.v.v.9.W.$XXX8.-.7.&.&.=.I.&XkXlX+X~.0.",
"S 6.K.c.6.$.F F F F @.K ;.Y.zXHXBX(.r.1.1.v.`.,XtX=X} a = 6X) ] | 8XyX1Xi ,X{ 6XtXsXXXv.v.v.r.r.c.$X+X(./.x.=.-.&.w./.T.u.L.K.&.",
"m B S @.*.8.7.O.D D F @.t.jXMXHXDX+Xr.<.<.r.Q.=X-X=X| 1X( CXCXZXKXCXKX[ 8X1X} k.yX-X.Xv.v.x.v.v./.$X&X.X/.c.-.=.%.&.2.3.I.*X$X3.",
"m M A (.XX%X&X(.@.D J $.|.jXjXbXGXhXr.<.<.<.Y.' 1X} =X9XKX8X..} l.-X3XsXyX>X2X=XtXnX[.v.-.v.x.E.(._.(.L.x.=.-.%.-.%.&.K.*XNXlXq.",
"m C (.*X$X$XkXkX/.D F F U..XU.gXGXmXU.>.>.<.m.OX} ] ,X2XsXsX8Xl.l.8XsXCXyX5Xd.2X' kXR.r.v.-.v.c.L.8.8.8.6.-.=.&.%.%.q.%XkXmXmXT.",
"m $.*X*X4.@.#XmX*X-.F F @.$.*.@XGXNXQ.7.<.<.t. X,X' =X9X9X2X:X[ k.>XsXsXtXtXj.( hX#Xv.v.x.x.x.-.9.x.x.c.c.6.2.&.&.&./.%XXXkXBX.X",
"m x.kX&XO.S w.zXnX/.@.S F $.$.!.NXNXoXr.>.>.<.t.6Xa.! ( qX2X( ( ' } tX9X-X8X! ' XXm.e.r.x.9.8.8.x.c.x.c.c.c.0.&.%.&.L.W.6.$XBX*X",
"N c.nX*XD S A &XmX+X@.D D @.@.t.mXGXhX5.*.>.<.7.6XrX! T 0X,X>X-X=X9X5XtXR U g pXd.t.8.9.9.9.9.8.c.L.6.6.x.I.c.&.=.&.%.3.2.).mXzX",
"B n.nXkX4.V D (.cXfX2.D S D @.4.lXGXxXw.4.>.<.6 5XeX<XI aX-Xa.=X' 1X0X1XQ a pXpXf.f.( I 9.9.9.8.R.c.9.=.6.c.I.6.=.&.%.2.%.L.mXmX",
"A 4.kXxXK.B V c.zXkXc.D S F D *.+XSXNXQ.;.9 x X.4XeX<X{ ! ! T -X' -X-X=Xt yXrXpX6X7Xf.{ u z <.8.L.K.7.2.2.x.L.x.2.&.2.2.%.w.kXmX",
"A O.*XmX_.A A $.hXzXR.D S D D @.|.BXBX6 t 7 x <X6XrX<Xd.a p p ' v T 4 Q pXpXpXrX7XrX7X<Xk e 0 r L.L.7.7.7.6.L.q.2.%.&.&.&.2.$XBX",
"A V XXmX&XA B D *XzX/.D B A D w.{.r 8 7 e * x 7XeXeX5Xd.<X} =XX O x eXrXpXpXpXpX7XrXqX6Xe 7 r 0 r :.6.=.&.2.K.L.4.&.%.2.&.&._.mX",
"+.N R.zXzXw.B V &XnXR.A S A ;.e - u 8 3 0 1 k eXeX6X6X,Xd.<X,Xs.1XeXqXrXpXrXrXrXyXyXrXT e u r 0 0 w q &.&.=.L.L.3.&.&.&.&.%.R.mX",
"+.m O.*XnXoXO.O.*X*Xw.A F j e & 7 k & 3 j 3 8 ( pX6X3X<X,X5X<X| ( 1XeXrXrXrXrXrXpXpX:Xl 0 e 0 : w 1 0 w k =.x.L.4.&.&.&.&.L.XXmX",
"O.N N W.kXzX#X.X*XoXn u 0 e r # , k $ 1 k 0 k l rXqX6X6X1X5X<X=X} 1XeXpXeX7XrXpXVXVXv q e 3 0 $ & 0 8 8 7 e K c.2.&.&.&.3.).&XkX",
"+.N m A ).*X&X$XXXy , w 2 e 3 $ # r & $ r 8 r e y eX4X5X<X,X,X=Xa.1X6XeXeXeXrXpXpX=Xr r e , 3 $ $ q : 7 0 e r 9 =.&.=.%.&.I./.x.",
"A m m m A w.I.T.l r * q q q , $ o q $ $ t 3 0 0 u ( 6X5X<X:X} ] ( } ,X5XeXrXuXpX-Xt 3 r r & 3 $ $ r * 2 , 7 e e j u %.%.%.%.&.0.",
"N N m N O.%.~.Y l u % , u * $ $ # , $ O e e 3 e w r g 4X<Xd.a.} } } ,X1X7XpXyX1Xe 3 e 3 r 1 $ O , r % 7 $ e 0 r r r j %.%.%.0.I.",
"B N m N +.Q.U l u z e + u # + & O * # @ e 3 0 0 0 8 e r ,Xd.=Xs.} a.s.,XrXrXc r : q w q r : @ o 7 e & * $ u 8 r w x Y %.%.%.L.I.",
"N N B B 3.OXY l w k & < & $ + & + $ $ $ r q 0 1 8 1 0 0 3 w ] 1X:X| } 1Xu e 2 0 8 3 0 r e ; @ $ : 1 : $ $ l e w w l k Y O.%.I.I.",
"N N N B 5.Y z k u e r z : @ $ 1 $ $ $ $ q q 0 1 8 ; 0 8 5 1 1 * & > 7 3 3 q 8 , e 3 0 r 1 $ # $ 3 $ $ $ $ l 8 @ l r u z %.%.I.I.",
"B N m O.w.W z r k , j   , $ + 1 , ; o + 0 w 1 3 0 : < 8 3 , 1 < ; : : : 1 1 3 , 0 3 0 r ; @ $ % 5 ; ; $ * z , $ z r k Y O.&.I./.",
"O.N N +.n I k 1 k 5 k o 1 $ $ : < : # + , w > 5 w 1 ; , 3 3 , < < 1 > 5 1 , , 3 8 , 0 w ; @ $ , 0 @ @ $ , 0 @ e r w z z H %.L./.",
"+.N N N I n r k ; r 0 ; w # + o 3 , + + < w ; 1 0 8 < : 1 1 1 < , 5 1 , , , 1 w 3 , 3 3 $ @ $ , 8 $ @ & 8 ; + l 1 r k k Y %.L./.",
"5.+.N N n z 8 w , < r ; u $ @ o 1 1 @ + $ 1 > 1 0 8 < : 1 5 1 , , , , , < , 8 8 , , 0 , $ % $ 1 < @ ; , r ; % j 0 r e z n O.0./.",
"i.+.N I l l ; 0 e + > : 0 1 @ o 0 1 @ $ @ , ; < 0 8 3 : , 1 0 , , < , , 1 3 0 1 < : 0 > + $ $ 1 ; $ @ , k # r 5 0 e e l z O.3.I.",
"~.+.N Y l u 1 r , 8 + 8 . 5 # + 5 8 & $ $ < > > 0 8 3 : < 3 3 3 < < 1 : 8 8 0 1 > 3 8 , $ @ , 3 > @ @ 5 > o z 5 0 q u x z Y O.L.",
"+X+.N l k r u + < 8 , r   8 @ $ 3 0 : @ ; ; ; ; 8 8 8 3 : 0 3 : < , , < 8 q w , : 1 0 > % @ 3 5 , # + 1 $ , < $ q 3 0 u j Y O.%.",
"gX5.V k e r 3 & , o + 8 o 8 @ @ & 3 3 O % : ; > 3 q 8 3 3 3 3 : : , , 1 0 q 3 : : 1 w % @ + 0 5 ; + + > . r 8 $ q w e k n Y A O.",
"vXi.n j k w w w o + * 3 @ 1 ; @ $ 3 3 ; & : @ < 1 r r q 3 3 : 2 > > 8 8 q r 1 , < 3 w ; ; + 8 0 , @ $ 3 + @ < + 8 ; r r j z A O.",
"bX Xl e r < 8 1 3 o o o @ < @ i   4Xi : ; $ ; : 0 s p ~ 9 : : : * > , 6 o.)  .d.0 k eXp.: : c c j h < 4 < + @ % < 3 0 w z l O.O.",
"DXvXy 6 r 0 % 1 > $ $ o o $ & 0 Q  .v s s  .4 1 ^ v / o...a t : 8 t e ` 7XuXuXz w [ a.5 4 O x c ZXdX;X< ; + + , O 0 0 r l z A A ",
"mXxXz q r 3 3 o @ $ o . o O $ < c  ..... .ZX0 3 k./ / o...o./ , 1 e 8 ^ W W x 0 U U h 3 : 4 c j W dXh < o o @ o , 1 5 r r z C m ",
"oXT.y r 0 8 8 1 $ o # + . $ O n -X/  ... .j.4 < h v  ...aXW y 8 8 0 2 ! h.W j 0 t l t 3 3 : c c j j.h 0 o o o $ , 5 0 w r z C N "
};
