/* XPM */
static char *_183cb748bf741e1e737df17c6cb8c42aomBTjxwuz9tCtTg[] = {
/* columns rows colors chars-per-pixel */
"64 64 256 2 ",
"   c #0E080A",
".  c #160B0C",
"X  c #0D0C17",
"o  c #120E18",
"O  c #1B1317",
"+  c #14111C",
"@  c #27181B",
"#  c #35181B",
"$  c #0D1324",
"%  c #171625",
"&  c #161C34",
"*  c #251C26",
"=  c #261C32",
"-  c #192239",
";  c #282229",
":  c #382427",
">  c #2D293A",
",  c #382B37",
"<  c #481C1B",
"1  c #4E2B2D",
"2  c #442D33",
"3  c #4B3539",
"4  c #563737",
"5  c #6F3432",
"6  c #71413C",
"7  c #1A1A4D",
"8  c #333150",
"9  c #182463",
"0  c #262F6C",
"q  c #483945",
"w  c #503B4C",
"e  c #693E43",
"r  c #3B4369",
"t  c #5A4346",
"y  c #534551",
"u  c #674648",
"i  c #704D4F",
"p  c #6B5355",
"a  c #77565A",
"s  c #4E5175",
"d  c #6B5968",
"f  c #765B66",
"g  c #695971",
"h  c #786470",
"j  c #873738",
"k  c #91504F",
"l  c #875657",
"z  c #A95B59",
"x  c #99615A",
"c  c #A5685B",
"v  c #8F5C66",
"b  c #A75B60",
"n  c #886567",
"m  c #976967",
"M  c #886B75",
"N  c #966E71",
"B  c #9B7579",
"V  c #A76967",
"C  c #A8726C",
"Z  c #B5766C",
"A  c #B06B72",
"S  c #A87877",
"D  c #B67A77",
"F  c #C17D79",
"G  c #AB817B",
"H  c #B8837C",
"J  c #C4857C",
"K  c #1F1C96",
"L  c #21118D",
"P  c #231596",
"I  c #2A3091",
"U  c #281BAD",
"Y  c #2E25B2",
"T  c #2C24BA",
"R  c #374689",
"E  c #374DB0",
"W  c #48538B",
"Q  c #56699C",
"!  c #73718C",
"~  c #546AB0",
"^  c #6776AF",
"/  c #3329C7",
"(  c #322ECA",
")  c #342AD8",
"_  c #3835D7",
"`  c #3736E6",
"'  c #3936EE",
"]  c #403ADE",
"[  c #413BE1",
"{  c #4239FB",
"}  c #3A4CD0",
"|  c #3A46E9",
" . c #3F53E0",
".. c #3C48F9",
"X. c #3E55FC",
"o. c #3D64E9",
"O. c #4353D7",
"+. c #5070DE",
"@. c #4448E7",
"#. c #4756EA",
"$. c #4547FB",
"%. c #4356F6",
"&. c #4454FD",
"*. c #4B53FE",
"=. c #455BFE",
"-. c #4B5DFE",
";. c #5458FE",
":. c #4766E8",
">. c #4566FB",
",. c #4B63FE",
"<. c #4B6BFE",
"1. c #5265FF",
"2. c #546BFE",
"3. c #596CFD",
"4. c #4C75FE",
"5. c #5473FE",
"6. c #5B74FE",
"7. c #557BFE",
"8. c #5C7CFE",
"9. c #6270FF",
"0. c #627DFE",
"q. c #927987",
"w. c #A67D84",
"e. c #B97A84",
"r. c #B47C94",
"t. c #867EBC",
"y. c #C97B86",
"u. c #917CCF",
"i. c #7186BA",
"p. c #768BC8",
"a. c #7990CB",
"s. c #7D96D7",
"d. c #5C83E7",
"f. c #5583FE",
"g. c #5C83FE",
"h. c #578AFF",
"j. c #5C8BFE",
"k. c #5A95FE",
"l. c #6385FE",
"z. c #6987FD",
"x. c #648BFE",
"c. c #6A8DFF",
"v. c #6F92F3",
"b. c #6593FE",
"n. c #6B93FE",
"m. c #669AFE",
"M. c #6C9BFE",
"N. c #7591F0",
"B. c #7295FE",
"V. c #739CFE",
"C. c #7A9DFD",
"Z. c #65A3FE",
"A. c #6DA2FE",
"S. c #75AAF1",
"D. c #74A3FE",
"F. c #7BA5FE",
"G. c #75AAFE",
"H. c #7CABFE",
"J. c #7CB5FD",
"K. c #938395",
"L. c #AA8586",
"P. c #B38482",
"I. c #B88787",
"U. c #B38A85",
"Y. c #BC8C84",
"T. c #BC8C8B",
"R. c #B5918C",
"E. c #BB928D",
"W. c #A98D96",
"Q. c #B98C93",
"!. c #BC9594",
"~. c #BA9598",
"^. c #A88FA7",
"/. c #AC9CAF",
"(. c #B799A6",
"). c #C78987",
"_. c #C48D8C",
"`. c #C69086",
"'. c #C3928C",
"]. c #CC918C",
"[. c #D3928D",
"{. c #C88C94",
"}. c #C39393",
"|. c #CC9493",
" X c #C69899",
".X c #CB9B9C",
"XX c #D29794",
"oX c #D29C9B",
"OX c #D2A29D",
"+X c #C99CA3",
"@X c #D49EA2",
"#X c #C9A2A7",
"$X c #D5A5A7",
"%X c #D4AFB6",
"&X c #E1AEB3",
"*X c #E5C5BE",
"=X c #8694C8",
"-X c #9390CA",
";X c #859AD8",
":X c #A38FDB",
">X c #8AA1DD",
",X c #98A8DD",
"<X c #AAB2DC",
"1X c #899EE4",
"2X c #8AA6E6",
"3X c #94A7E4",
"4X c #94AAE6",
"5X c #94ACEB",
"6X c #9AAEEB",
"7X c #99B0E7",
"8X c #9CB1ED",
"9X c #88A8F5",
"0X c #82A4FE",
"qX c #83ACFE",
"wX c #8AADFE",
"eX c #92ACF2",
"rX c #84B2FE",
"tX c #8BB4FE",
"yX c #85BAFE",
"uX c #8CBBFE",
"iX c #97B6F7",
"pX c #9CB3F1",
"aX c #92B5FF",
"sX c #92BCFF",
"dX c #A0ADE9",
"fX c #A7B3E5",
"gX c #A4B4EC",
"hX c #ADBBEC",
"jX c #B5BBE5",
"kX c #B2BEEC",
"lX c #A5B8F5",
"zX c #ACBDF3",
"xX c #B1BEF1",
"cX c #8DC3FE",
"vX c #8ECCFE",
"bX c #93C4FE",
"nX c #9AC4FF",
"mX c #95CBFE",
"MX c #9ACCFE",
"NX c #8FD3FD",
"BX c #96D3FE",
"VX c #9CD3FE",
"CX c #98D8FC",
"ZX c #9CDBFF",
"AX c #B3C1F0",
"SX c #B5C2F5",
"DX c #A1D7FE",
"FX c #A2DCFF",
"GX c #9EE2FE",
"HX c #A3E4FF",
"JX c #A7E8FF",
"KX c #AAECFF",
"LX c #B1F2FF",
"PX c #D2C4CE",
"IX c #EACCC9",
"UX c #D1D1EE",
/* pixels */
"8.x.n.tXVXG.2.b.D.l.D.bXZXHXMXbXBXvXtXsXBXsXtXwXc.6.6.tXmXmXcXn.g.f.2.3.1.3.x.BXmXf.-.z.0XbXnXsXuXwX0XB.0.B.0X0XrXmXmXH.0.c.rXMX",
"l.D.A.rXDXJ.8.D.D.n.uXFXJXLXHXvXBXCXsXwXBXZXmXqXl.6.x.yXBXVXbXM.M.M.l.6.1.9.b.VXVX7.<.c.tXFXDXnXsXtXqXV.0.C.qXH.uXVXDXyXz.z.bXJX",
"0.D.D.D.uXM.c.D.n.l.sXHXJXLXGXcXmXVXbXtXmXGXZXtXx.l.b.cXBXBXuXx.A.A.M.l.8.A.uXHXFXZ.7.V.uXHXHXVXsXtXuXH.l.rXsXsXcXDXFXbXn.z.bXHX",
"c.D.D.c.C.0.x.H.D.c.qXmXZXKXZXtXbXVXuXmXBXGXZXmXF.g.M.mXMXbXF.6.m.V.M.0.8.A.rXcXmXm.g.F.uXMXMXMXsXtXbXH.x.uXMXnXbXmXMXuXC.l.uXVX",
"x.A.D.rXbXD.g.D.H.n.wXbXZXLXHXtXbXVXsXcXBXBXmXuXV.g.b.J.rXtXD.8.b.F.m.g.3.l.l.V.qXh.h.H.bXMXaXMXsXqXuXF.l.tXsXsXsXuXtXqXV.l.rXbX",
"9.x.D.bXZXrXx.M.x.l.tXsXvXJXGXbXmXZXbXwXcXmXsXb.8.6.x.H.rXtXF.8.m.D.D.g.6.x.0.c.G.j.k.H.bXMXsXsXsXtXrXF.l.J.tXrXuXmXbXF.V.z.cXVX",
"D.D.D.tXZXJ.n.V.c.g.F.tXcXZXGXCXGXZXmXuXuXVXmXx.6.6.l.tXmXmXH.g.l.C.yXS.g.n.z.b.G.f.h.C.uXnXsXsXsXaXtXV.l.rXsXtXuXVXmXF.V.n.mXDX",
"bXH.C.rXMXH.l.F.M.x.V.tXBXJXGXZXHXGXvXmXmXVXmXB.8.0.x.tXbXcXD.I :.} o.+.m.B.l.x.G.g.g.M.rXnXbXnXaXwXwXV.c.uXMXsXuXmXmXD.c.n.cXFX",
"bXH.V.F.bXM.0.c.x.l.qXsXCXLXJXCXGXGXbXbXBXZXmXb.8.g.4.0 % $ + + X + $ $ X % 9 O.D.g.f.D.bXVXnXbXaXtXtXD.n.uXnXsXcXVXVXV.c.x.uXmX",
"uXtXD.V.H.b.1.0.x.l.qXVXHXLXLXGXGXHXBXuXcXZXmXn.,.& % ; ; + X X X + + o X X o - & 8.x.H.nXHXMXaXaXtXtXn.x.uXtXrXrXbXmXF.l.0.F.qX",
"qXF.D.3.l.6.;.z.F.b.F.FXJXKXLXGXZXZXBXMXmXvXvX<.% % % * X % O X o + X   o X $ * $ & E B.sXVXnXaXwXaXtXC.n.sXsXtXH.F.F.M.c.l.cXmX",
"n.H.n.;.3.2.*.0.n.c.qXHXKXJXLXCXmXmXMXJXJXCXqX% + o + % , , 3 , O %   + X X % + + $ & % tXMXMXnXwXtXbXF.B.bXbXtXD.qXH.V.l.M.VXFX",
"l.C.n.1.6.5.*.3.l.x.tXVXJXLXJXtXsXbXMXKXLXHX9 + + o : 6 k x x l u 4 o @ ; @ o o X X $ & & mXVXnXsXaXuXC.V.bXMXaXF.bXbXA.c.D.BXDX",
"9.c.n.3.8.6.;.l.F.x.qXsXZXJXZXwXsXmXbXZXHXbX% + * 1 k x c c c c c V x 4 1 1 5 : , O + o - } nXsXaXnXtXC.B.sXsX0XV.mXmXF.x.n.cXmX",
"0.0.z.l.M.8.;.l.n.x.V.tXcXBXmXcXmXsXtXbXcX% % : l c x c Z Z D Z D D Z c z c c z k 1 , + $ & NXMXaXsXsXV.V.sXrXn.V.mXMXH.b.l.H.H.",
"9.6.x.D.uXM.b.M.l.6.V.wXcXBXmXcXZXmXaXZXm.% @ m C Z H H J `.).H J J F Z D Z Z Z c c l % & - 0 BXaXwX0XB.D.nXaXC.V.cXbXD.x.l.J.tX",
"9.V.D.H.bXG.j.H.M.x.D.tXVXKXGXcXZXCXtXJX7 * 4 S D Y.).).).]._.].].|.[.].].`.J J D D B G - & $ rXaX0X0Xz.C.sXsXtXC.B.C.b.8.M.mXbX",
"c.D.D.D.yXM.8.V.n.x.F.DXHXKXJXBXCXmXcXVX> > m D ).T.}..X).XX|.|.].XX|.oXXX[.[.].].Y.U.^.> - & +.aXwX0Xc.F.nXnXuXH.H.qXn.8.D.mXmX",
"l.D.V.8.b.5.j.b.6.8.tXHXKXKXKXCXZXmXtXBX, q S D e.'.oX.X].).XX|.].XXXXoXXX[.].XXXX|. X(.s r - E wXsXaXC.B.uXtXtXcXMXbXD.8.m.cXyX",
"3.D.n.1.5.3.j.V.g.8.qXFXJXKXKXmXZXmXuXcXy p S I.P.}.}.'.].|.|.XXoXoXXXXXXX[.[.oX|. X X~.d 8 s 9 wXtXaXB.c.0XqXrXbXVXMXJ.8.8.G.A.",
"0.M.c.;.3.1.g.V.g.5.D.bXFXKXHXwXsXcXMXE d n e.S H w.Q.#X+X$X$X@X@X@X@XoXoXXXXX|._._.Q.~.h W s 7 wXaXrXc.n.wXaXsXbXMXmXG.6.0.M.b.",
"0.M.x.*.<.1.5.g.7.3.M.wXcXBXuX0XrXtXMX0 f w.H w.w y d 8 d (.$X$X@X&X|.+X#X X~.!.I.L.(.~.q.! ^ - aXlXsXn.V.iXsXsXyXuXrXm.5.f.J.G.",
"n.b.g.*.8.8.8.n.g.g.H.sXcXuXqXqXsXsXuXw M I.S , , & + + % * ^.%X@X+Xq.f q % * d p g Q.~.(.q.Q 8 qXaXsXb.D.sXtXrXV.V.D.x.<.8.cXJ.",
"qXM.g.*.5.7.8.M.n.g.H.tXtXcXuXtXmXbXtXd h I.a d t K.B m m f M #X{.+Xw.t y * ; * 8 q ^.^.~.L.! s F.0XH.0.n.rXF.D.G.J.F.f.2.h.J.J.",
"tXF.j.*.7.5.*.3.5.2.H.uXqXcXmXcXvXcXvXp d R.w.q.Q.l x 6 k m Q.&X+X%X XS V x V n : d g K.+XW.! W 0XrXF.8.M.rXqXG.yXbXcXj.,.5.A.j.",
"J.M.g.g.H.l.-.3.7.8.uXVXmXcXNXNXmXr.M d h S L.~.m = o o < v T.+X].oX].S x S S C P.a P.q.(.q.! s C.tXqX8.M.tXqXH.yXbXcXM.-.2.b.7.",
"j.h.<.k.S.g.7.b.j.7.J.mXbXcXcXbXbXk {.V h w.!.G v n @ O p v D _.Y.F {.x 1 g o O ~.D m L.(.q.! W C.tXJ.8.M.uXF.n.J.cXyXj.>.k.J.Z.",
"<.f.<.7.Z.>.<.f.>.&.k.m.n.qXH.qXwXA XXe.B e.Y.T.I.#Xx k l Q.H I.F Z J A 1 g # * f 6 .XL./.! ! x.b D m.>.j.G.b.j.k.m.Z.f.X.k.J.Z.",
"l.m.g.7.M.f.8.8.*.=.A.G.M.qXtXF.F.z $X!.w.P.T..Xe.N m w.w.e.Y.{.`.F D D k j m b _.D ].'.+X! D y.XXj N.-.j.M.m.m.g.7.h.4.X.k.G.k.",
"6.b.8.$.l.8.0.z.1.,.qXbXD.F.0XF.:XXX_.{.e.T..X Xe.D A S D Y._.I.[.J D V Z z m c ).).T._.(.! ).].[.j >X0.F.aXtXqXB.B.D.n.5.b.G.k.",
"-.f.2.{ 1.1.@.;.-.-.m.H.F.n.n.c.:X&X@X).w.}.}.oX.X{.e.}.T.C D I.oX[.~.V ).b k V D |.D (./.K._.Z [.j N.0.V.aXaXtXqXC.C.n.8.g.g.3.",
"5.n.5.@.<.-._ ] @.*.7.j.l.C.n.0.z.[._.'.B _..X$X%X{.S C S @X+X%X&XIX X%XD Z b F ).|. X}.(.!  Xz ).j F.3.V.wX0XD.C.C.B.l.8.8.0.-.",
"5.j.6.$.5.3.[ / / &.m.G.b.n.C.c.c.$X[._.w.!..X$X$XC 5 ~.Q.N ~.r.XX{.@ k V 5 k ].$X@X#X+XW.w  XD V e.A.3.n.qXz.0.b.B.c.c.b.8.6.;.",
"] 5.1.[ -.*.@.( T $.M.uXD.V.F.0XV.].#X.XL.!.}..XI.4 ~.L.f y e q.v C l B Q.S < e.$X@X%XQ.~..X|.).z y.D.,.M.F.0.8.c.C.n.c.l.3.1.*.",
"_ =.%.( ,.*.#.O.T ] 5.b.z.c.F.aX0Xu.#X$XM T.Y.}.< p p p p # q q 3 @ 3 : 4 S V C oX.X XP.K.XXk +XXX-Xx.,.A.tXn.l.B.B.c.8.l.3.3.*.",
"] ,.&._ ,.=.#._ T ] 5.7.1.0.H.sXtXB.^.+X, S e.T.i : B A r.#X#Xy.y.S N e f i n T.XX'.!.T.g }.F @XD l.8.-.x.qXC.V.F.F.0.l.n.3.1.*.",
"#.f.>.@.<.=.@.} T *.C.A.1.g.qXsXwX0XF.tX= v B I.5 l 4 k k e.A r.e.D A {.A k 1 n Y.`.R.N 7 D oX@Xz.C.b.*.7.n.V.D.qXtXb.x.g.1.-.*.",
",.x.4.` <.-.4.#.T ;.H.H.g.l.C.wXtXqXC.wX7 q e {.m m < e.*X*X*XIXIX%XIX%X{.# 4 i ].H L.M R sXt.G.v.F.m.-.8.n.m.A.qXsXF.n.l.,.;.$.",
",.h.%.( -.1.5.@.T =.m.A.x.C.c.n.yXD.H.uX0 , u P.S I.k ~.*XPXUXIXIXIXIXIXOX< D ).OXB a h F.qXuXG.l.D.G.=.j.C.D.F.H.bXuXH.n.8.,.$.",
"&.4.@.( =.&.#.} T >.G.A.b.C.c.8.A.F.F.MX9 & h M T.}.Q.V A &Xy.#Xe.A M l b ].oX|.H n f = nXuXqXF.j.A.m.&.f.F.rXD.b.H.qXG.x.7.3.$.",
"/ >...( ....:.} T >.J.bXyXtXH.n.D.D.0XuXuXI i u !.OX#XC U. X{.y.{.{.y.A _.]..X|.n i w d.mXuXqXD.c.M.j.$.5.B.D.m.2.x.V.n.7.,.,.$.",
"| <.X._ &.,.:.@.T &.m.nXMXbXmXuXrXF.F.qXF.S.q a G #XOX~.Q.D y.{.y.y.y.+X].OX|.E.n 3 * x.tXtXqXD.x.b.f.$.,.7.b.b.b.D.M.C.x.8.,.$.",
"#.5.$.( =.%.,.} / &.b.bXsXmXBXuXsXD.F.uXtXF.; q G ~.OXOX+Xn n u n N {..X.X$XOXG l 8 % M.sXrX0XC.l.x.5.$.2.g.b.D.H.qXb.m.x.6.-.$.",
"O.<.) / ..$.} _ T <.H.mXbXVXBXuXaXwXrXbXmXsXB * p !.!.!.+XN q 4 e m _.oXOXOX!.m t = f A.MXbXC.c.V.M.j.$.7.n.V.D.H.H.7.5.2.*.*.{ ",
" .4.` ) =..._ T U =.J.bXsXMXMXbXaXtXtXbXbXuXG 3 ; a !.OX!.G t p i T.'.$X}.#XS f ; 2 L.M.bXqXc.l.n.D.7.$.8.C.M.D.H.qXj.7.2.-.-.{ ",
"<.4.| _ =.$.U P U =.b.D.qXqXuXbXsXF.qXsXtXG.G G : @ n h G 4 1 t 1 a ~. XG n t : 2 Y.L.k.V.c.D.l.8.b.f.$.7.b.x.x.M.m.j.j.7.-.=.{ ",
":.5._ T { ) P P T 4.V.n.B.0X0X0XqXn.m.qXH.x.L.G p ; ; 2 y ; : 2 1 4 a a u , : l H H ^.M.M.x.D.M.8.m.f.&.5.l.3.5.g.5.7.7.,.&.*.{ ",
" .<.) T ..) L L T 4.rXD.z.n.D.n.C.m.M.rXtXM.w.P.G G @ @ 3 @ O t : : 1 : ; O i G H G -Xg.c.g.n.l.x.V.7...8.x.8.x.D.M.b.j.5.,.*.' ",
"( X.( / ..` L L U <.A.G.D.A.D.F.M.n.H.sXsX8 N H R.U.p O . O   ; 2 O : O @ n G H H P.K.7.x.l.x.8.x.m.7...g.C.l.m.rXqXG.m.x.1.&.{ ",
"Y | _ T ../ U L U &.x.M.cXyXb.V.D.f.G.bXjX  G G R.R.U.3 ; + ; . . t . 3 m G H H H U.^.> C.g.A.b.6.j.<.' 6.c.8.n.rXH.G.j.<.&.&.{ ",
"U _ ( / ..X.O.Y P >.b.x.uXcXC.F.F.j.0XlX-X  C R.R. XR.U.3 O @ O ; 3 G G H G H '.G I.W.O s.f.Z.b.5.<.=.' >.5.-.g.D.Z.b.g.<.&.$.' ",
"} X./ _ X.%.+.Y U >.M.M.yXbXtXiX<X<X=XhX=X. m U.!.!.!.L.L.G G R.G G H H E.H E.H Y.R.B * 9XS.v.h.8.,...` &.<.f.k.x.7.4.j.x.-...' ",
"o.o.T ( X.| } U U >.n.V.tXlXjX<X<X<XR hXgX@ C U.!.!.!.R.G G R.R.G G H G H H E.H '.P.: 8 2XS.R s.C.j.>.` X.f.x.b.7.<.>.4.=.X.X.` ",
"} >.U Y ` } O.I Y 4.M.zXjX<X,XfXAX=Xr hXgXr 6 G R.!.~.R.G G G R.H G H H H '.'.J Y.G   i.2Xs.0 2Xp.^ v.` >.f.g.k.k.b.f.X.` ....` ",
"o.o.U _ ..%.} I K eX<X<X<X,X<XfXfX=XW 8X7X7X8 i R.R.R.R.L.G G N G G H H `.'.'.'.Y.; 8 iX2Xp.0 s.>Xa.a.s.-.5.j.A.D.A.m.X.) ....) ",
" .o.K ( ..| } <XjXjXhXfXfX,X<XAX,X=X! 6X8X5XiX0 y G R.!.R.R.G G G G OXJ E.|.'.N : 8 2XeX4X9 R 2Xs.s.a.=Xs.9Xh.D.A.M.k.X.) ....` ",
":.o.I T O.jXjXjXhXAXzXgXgXfXhXhX,X=X^ hX5X5XeX2X9Xs 2 !.E.U.E.E.OX#X!.OXH G u 4 w 9X2X2X;X7 i.2X>X;X;X;Xs.a.>XM.m.b.f.>...' ' ) ",
"}  .I jXjXAXAXSXSXhXSXhXfXfXAX7XdX=X^ fX8XeXeX2X>X2X8XK.G E.Y.E.!.R.!.G n t t r ,X2X>X2X7 R >X5X>X;X;X>X>X,Xs.2X9X>.>.g.5.&.' ) ",
"O.jXjXAXAXSXhXxXAXSXAXhXgXhXAX8X7X,Xi.,XpX>X2X2XPXPX2XiXa c E.E.H !.G n u d jXi.;X;X;X0 0 a.2X>X3X,X4X4X4X7X3X2X2Xa.C.>.>...| ( ",
"jXjXSXkXkXAXzXSXSXzXAXSX7XAXhXgXdXfX=X=XgXpXa.eX2Xs >X4Xi n a L.R.R.G G =XAX,Xa.;X;Xp.0 ^ >X2X3X4X,X7X5X4X7X6X2X2X5Xs.4X| | ` ( ",
"AXAXAXAXxXAXzXxXSXAXSXSX,XhXlXzX8X6X,X=XfX2XiXW 9XpXxXSXSX4 : N  X(.W.s.i.7X>Xa.a.1X9 Q ;X3X3X5X2X4X8XpXpX5X6X4X2X5X2X>X2X5X| T ",
"jXAXjXAXSXxXhXxXnXlXAXlX7XzXlXzXgXgXzXhXdX2X1X5X^ iXSXgXUX* # a (.+XzXs.7X>Xi.s.;X9 Q s.;X2X3X2X6X5X6XpXpX8X6X6X6X5X6X4X2X4X4X+.",
"AXhXhXhXzXhXzXzXxXzXiXlXgXlXlXlX8X6XgXzXlX7X;XeX3XdXlXxXnXdX# : R.(.iX7Xs.Q a.a.0 p.1X3X1X6X5X3X5XpXgXpX8XpX5XpX5X6X5X5X2X,X3X7X",
"hXgXpXzXlXgXlXzXzXzXAX8XzXgXlXlX8X5XeX6XpXlX1X1XpX3XSXdXSXAXhX@ M 7X5X5X~ a.S.0 pXeX5XeX3XpXeX3X8X8X8X8XpX8X5X5X5X5X5X5X5X4X4X4X"
};
