/* XPM */
static char *_e7a8e8475f644a5b44c61168cdc8884cLRLIko5xByrHa91[] = {
/* columns rows colors chars-per-pixel */
"64 64 255 2 ",
"   c #040404",
".  c #06080A",
"X  c #0C0B0C",
"o  c #160B0A",
"O  c #0F0E11",
"+  c #061619",
"@  c #191417",
"#  c #2C1615",
"$  c #261919",
"%  c #072C1E",
"&  c #111B24",
"*  c #271E22",
"=  c #092428",
"-  c #0C3030",
";  c #382626",
":  c #2C2B30",
">  c #461B12",
",  c #49221D",
"<  c #472927",
"1  c #4F3330",
"2  c #593532",
"3  c #6A352B",
"4  c #683C35",
"5  c #753E35",
"6  c #01472C",
"7  c #074835",
"8  c #015334",
"9  c #09563B",
"0  c #015C3B",
"q  c #12503C",
"w  c #01633D",
"e  c #01683C",
"r  c #00783E",
"t  c #6A4138",
"y  c #78443A",
"u  c #133A48",
"i  c #313549",
"p  c #373549",
"a  c #473946",
"s  c #433E53",
"d  c #0B5B42",
"f  c #135845",
"g  c #134E52",
"h  c #28504F",
"j  c #36595A",
"k  c #036542",
"l  c #016C44",
"z  c #026D4B",
"x  c #0A6A4B",
"c  c #14634B",
"v  c #13674A",
"b  c #037447",
"n  c #01744B",
"m  c #017A4D",
"M  c #13744D",
"N  c #0B6C53",
"B  c #176954",
"V  c #1B6B54",
"C  c #027B54",
"Z  c #087857",
"A  c #18765A",
"S  c #276559",
"D  c #24725C",
"F  c #07566A",
"G  c #345767",
"H  c #157567",
"J  c #2C6C61",
"K  c #376A65",
"L  c #297A67",
"P  c #35756B",
"I  c #316E79",
"U  c #3A7A73",
"Y  c #48455A",
"T  c #544B52",
"R  c #684747",
"E  c #774A44",
"W  c #745252",
"Q  c #755755",
"!  c #4C4B63",
"~  c #524D64",
"^  c #46546F",
"/  c #58546A",
"(  c #5A5973",
")  c #625A69",
"_  c #625D74",
"`  c #4F6D74",
"'  c #477776",
"]  c #68647A",
"[  c #766B73",
"{  c #8E373B",
"}  c #87483B",
"|  c #914B3B",
" . c #993C46",
".. c #874B45",
"X. c #904B4D",
"o. c #895349",
"O. c #96564A",
"+. c #885855",
"@. c #995C55",
"#. c #A35A4D",
"$. c #AA4855",
"%. c #A55D56",
"&. c #8E635D",
"*. c #976159",
"=. c #9C635C",
"-. c #A7655B",
";. c #B3695C",
":. c #A75E66",
">. c #986865",
",. c #8D7172",
"<. c #A46B63",
"1. c #AA6B65",
"2. c #B46B67",
"3. c #AC736B",
"4. c #AB7469",
"5. c #B3736B",
"6. c #B8776D",
"7. c #A97374",
"8. c #B77A75",
"9. c #BC7C73",
"0. c #C85969",
"q. c #C2786C",
"w. c #D16675",
"e. c #C47B75",
"r. c #0E8257",
"t. c #058559",
"y. c #049658",
"u. c #07A75F",
"i. c #088864",
"p. c #168666",
"a. c #049469",
"s. c #15946A",
"d. c #079B75",
"f. c #159A76",
"g. c #26846B",
"h. c #378679",
"j. c #2C9179",
"k. c #08A769",
"l. c #05A679",
"z. c #12AF79",
"x. c #23A47B",
"c. c #47847D",
"v. c #0AC17D",
"b. c #BA8176",
"n. c #BD837A",
"m. c #C3847B",
"M. c #C7847A",
"N. c #D1847E",
"B. c #1F7187",
"V. c #32738F",
"C. c #477588",
"Z. c #597B84",
"A. c #50718C",
"S. c #6C6884",
"D. c #6F7589",
"F. c #957D85",
"G. c #C97280",
"H. c #119F9F",
"J. c #2A9983",
"K. c #359984",
"L. c #299292",
"P. c #07AB84",
"I. c #15A986",
"U. c #08B688",
"Y. c #16BA89",
"T. c #1FAA94",
"R. c #0BBB93",
"E. c #16BA96",
"W. c #2AA787",
"Q. c #35A48B",
"!. c #2FB293",
"~. c #27BB99",
"^. c #3390A6",
"/. c #31B8A6",
"(. c #588586",
"). c #44988A",
"_. c #528E91",
"`. c #6A8992",
"'. c #47A796",
"]. c #4CAB99",
"[. c #5090A9",
"{. c #6787A0",
"}. c #52B6A7",
"|. c #64B1AA",
" X c #15C689",
".X c #0CC492",
"XX c #15C59A",
"oX c #26CC9B",
"OX c #18CBA3",
"+X c #1CD1A7",
"@X c #29C7A6",
"#X c #38C8A9",
"$X c #29D5A7",
"%X c #35D9AB",
"&X c #2BD8B2",
"*X c #36DBB6",
"=X c #38E1AC",
"-X c #3AE2B6",
";X c #4DCFB0",
":X c #46D8B7",
">X c #63CBB7",
",X c #4DE1AF",
"<X c #47E5BA",
"1X c #55E7BB",
"2X c #34B7C9",
"3X c #69DAC6",
"4X c #63DFDC",
"5X c #4BE3C1",
"6X c #58E7C3",
"7X c #67EAC7",
"8X c #72EECC",
"9X c #8F8690",
"0X c #B98585",
"qX c #A89195",
"wX c #9299A7",
"eX c #A69BA8",
"rX c #9BA6B1",
"tX c #AFA9B3",
"yX c #C58B83",
"uX c #C88985",
"iX c #D28D88",
"pX c #CA9287",
"aX c #CD928B",
"sX c #D2928A",
"dX c #C99596",
"fX c #D69995",
"gX c #D4A1A2",
"hX c #E1A7A9",
"jX c #8C9FC3",
"kX c #8EAEC7",
"lX c #B6B4CA",
"zX c #C6B7CA",
"xX c #C6BCD3",
"cX c #97D4D7",
"vX c #96D0E2",
"bX c #AFDAF0",
"nX c #B3E8F8",
"mX c #D2C1CD",
"MX c #CCC2D8",
"NX c #D5C8DC",
"BX c #D5CCE2",
"VX c #DBCEE4",
"CX c #DDD1E5",
"ZX c #DED4E9",
"AX c #D2D9F1",
"SX c #E3D6EA",
"DX c #E4D7E8",
"FX c #E5D9EC",
"GX c #E6DAF0",
"HX c #EADEF3",
"JX c #CEE3F9",
"KX c #D7E8FC",
"LX c #ECE1F5",
"PX c #E4E4F9",
"IX c #F0E5F4",
/* pixels */
"- : S W.!.K.Q.Q.j h j J h.h.j.h.j h h f g.,X8X<Xr.q q 9 H d.&X5XZ 9 7 q 9 7 d v 9 9 f 9 f f c p.Z f d f 9 r.$X7X8X,Xv.e 9 8 e 8 ",
"q h h J Q.j.K.P j j K j U /.#X:X#XS h D oX,X8X7Xs.q q q f 9 E.5Xl.q 9 f 9 f d x c d f c f v v p.s.V v c v s.$X-X=X Xy.9 8 9 w z.",
"S h h h j K P ' K j K j ;X;X!.;X1X#Xj S j.x.,X7Xz.v q q d d P.5X~.f f d d d d B M c f c v B A p.s.A B v v v r.k.$X Xr.e 0 0 d.XX",
"q h h j j h.).c.` ` ` ' ,X1XU K.7X,XL S S c #X8X%XV q V g - & O + = + f B d c B N B B B v V A A g.p.V c V v f.<X7X-Xy.e 0 0 i.l.",
"S h j j ' ).}.].` ` ` ' 3X3Xh.P <X7XW.S S S ~.6X,XA = . .   .   . . . = + + B.g N M M V V V H /.@X%X~.A B A oX5X8X7Xk.l w w w 9 ",
"#Xj.j K ` c.].].(.Z.' c.3X7X).' ;X7X/.K S S x.7Xx X               . . & - u = B.F L.A B D S @X:X/.:X6X~.V V W.Y.<X8Xz.b k w w w ",
",X#XK ^ ` ` |.|.`.(.Z.Z.>X8X}.' ].7X;XK K S M +               . . . & u V.= 2XH.B.F p.A V L :X5XL W.6X:XL V A r.-X8XoXM v w w w ",
";X,X).` ` ` _.|.|.(.(.Z.|.8X1Xc.].3X#XP S S -           X . # ; $ X @ O O F + F B.4XH.D M g.5X6Xg.g.<X6Xx.B A A +X8X=Xr.x v e w ",
"#X7X].` ` [ `.>X|.c.(.`.].7X7X}.;X6XK.K J -   . o o # < t 5 ..O.E 5 5 2 ; : : & + ^.2X^.V g.<X6Xj.D *X6X!.D A A  X8X<Xy.b k k z ",
"!.7X;X' (.c.c.|.|.`.`.(.`.|.3X1X:X}.' P K   , 3 t 3 { } | #.#.#.#.O.| | y o.Q T `.; g H.L.L :X7X!.L #X7XoXp.H A  X7X8XoXk.M z Z ",
"W.7X;X` D.(.`.|.>X|.`.`.`.(._.].'.).h.P   $ t 5 3 } ..O.#.#.;.;.;.;.#.#.O.O.,.F.vXnX[.u u A #X7X;Xg./.6X~.A A f.%X7X8X=XY.M x z ",
"!.1X}.` ' (.`.|.|.|.`.`.(.(.(.).).).K.P . 4 5 } | | #.;.-.;.e.q.q.;.#.;.;.<.,.rXvXvXnXu 2XA J.1X6Xx.*X:Xx.M A f.$X*X$X.Xt.z l b ",
"/.;Xh.` c.c.`.`.|.|.`.`.(.(.).].K.).Q.K.@ 5 } O.#.1.;.5.8.e.e.q.N.q.q.6.q.2.3.9X9XnXnXB.F - g.@X<X*X%X~.r.A A p.s.Y.XXOXI.m b Z ",
"h.g.K ` c.] c.>X8X8X].(.(.c.'.'.c.h.Q.+ ; y | -.| 6.M.b.aXe.e.q.e.q.N.sXN.6.6.1.wXnXvX[.g + H g.I.~.W.p.p.A A A E.@XOX&X&XP.b a.",
"S h.c.' ' c.}.1XcX8X}.c.c.c.'.!.h.U j.  , y o.#.%.9.e.uXsXfXe.e.e.N.M.sXM.m.5.1.9XcXbXvXH = H p.p.j.s.f.s.H Z H &X&Xi.I.-X+Xm a.",
"S j.Q.c.' ' ].;X7XcX>Xc.c.c.Q.].h.L j.  2 } @.%.%.1.uXe.0XiXG.q.N.N.N.q.q.yX6.5.<.9XkX`.G = p.H s.f.p.s.f.s.p.s.*X*Xr.i.&X*Xy.t.",
"h S Q.K.U ' U c.;XcX,Xc.c.h.).!.K.P L   1 y O.-.%.3.5.2.q.e.uXq.M.e.2.6.m.uX8.2.M.eXeX`.V.= V i.f.f.p.p.I.f.Z s.&X-Xi.C OX-Xl.C ",
"h S h.'.h.' ' U ].8X7Xh.U U h.!.!.P L   4 } O.#.#.1.-.9.6.e.9.5.e.6.e.8.8.m.5.3.4.qXeXwX` . . p.f.f.i.r.f.f.i.p.&X5Xl.C E.-XU.C ",
"h S L K.h.P P U K.3X7XK.h.h.P K.!.J.g.  2 y O.| +.3.>.0X+.G.G.9.uX3.>.dXF.1 T ; T cX9X,.Y + + i.f.f.p.r.s.d.i.r.OX5X.Xt..X*XU.m ",
"q S L x.j.P P P U 1X8X;Xj.P L g.W.x.W.  4 y ..* O * @ $ ,.R 0X0X0X+.; * @ : ; T 1 j cXlX(.. . i.d.z.i.i.s.l.s.Z l.*X*Xa..X&Xa.m ",
"f S D J.j.J P P Q.6X8X1X/.j.L L g.x.x.X < y ; Q Q T $ @ W R 7.aXgXR < 4 =.uXaX0XW W `.cX` + = H s.l.a.p.a.l.a.t.t.XX&XOXOXR.t.n ",
"f g g L D h S S K.#X;X~.J.S S V r.!.p.e $ 2 Q 4.0XuX0X4.O.t >.n.0X+.@.+.+.&.&.E 1.2.>.rX{.+ = d N i.t.N Z Z x z k b a.l.a.l w w ",
"S L U U K K K K I P ).K.U K J K x.,XY.s.: } *.3 2 o   o , O.=.2.-.@.y > 9XX # R 5 4.8.wXkXg g >.3 A p.H A A M x x k x M I.d.0 0 ",
"S L g.h.P K K ` ' /.]./.;XQ.U h.#X7X,X> $ o.*.o qXo o [ 2 o.%.q.e.@.} 3 2 , < a +.3.n.eXkXG B.+.%.A s.x.z.z.s.p.Z Z i.OX:X&XZ n ",
"g S j.!.L P K K K.;X/.K.;X:Xh.h.,X,XoX, 1 O.-...+.9X>.5 <.X.%.e.e.2.O.:.@.4.pXyXn.n.qXtXwXh ,.qXc.A s.%X-X<X=Xk.p.Z U.&X5X*Xr.z ",
"q j.:X5XK.J J J Q.;XJ.J /.5X!.L ;X8X,XO.2 O.4.3.8.0XG.8.%.%.-.e.e.;.2.1.2.G.uXaXpX0XtXtXwX(.| e.v N ~.5X-X<X7X$Xy.Z s.l.&X5Xl.n ",
"H ~.5X6X~.D S S Q.:XT.J J.:X@Xg.oX7X,Xo.2 *.3.8.0XG.<.7.2.#.@.e.e.;.2.e.e.e.uXe.sXdXtXtXb._.O.2.y.s.-X6Xz. X1X1Xz.m b m XX<XU.b ",
"c j.Y.6X@XS S S J.*X~.J L :X#Xg.W.1X1XO.; @.8.n.aXdXG.5.;.O.-.9.q.6.%.9.$.q.iXiXsXpXeXeX` (.2.#.y.k.1X1Xz.k.<X1X XC b Z U.5XXXn ",
"7 f s.5X*XL S S g.*X/.H J #X#XH p.,X8X2.o.+.<.n.8.0X2.8.2.X.2.iXiXuXxX#.%.2.e.iXsXsXtXqX`.,.y 3.z.u.,X%X Xy.$X7XoXt.n n a.-X&Xt.",
"- q B :X:Xs.V V V /.*XI.A &X@XH A z.%XO.} R -.5.5.5.8.uX7.#.8.hXfXhX8.2.2.1.e.iXhXiX0XeX`.6.tX+ oXy.$X5XoXy.+X7X$XC b n y.*X-XR.",
"7 f f @X<XI.V B B j.#X@XT.~.T.A A A k.% %.1 o.-.2.e.8.uX#...X.6.9.-.0XO.8.9.2.e.fXq.4.b.[ -.0X1X Xd g 1X-Xu.XX6X+Xt.n t.U.-X5XOX",
"7 f f E.6X@Xf.V B B I.T.E.I.A N B B A t.T &.W -.2.1.6.6.8.X.-.7.5 F.>.>.1.8.yXM.;.1.*.,.`.-.U.1XY.t.n -X1X+X=X<Xv.b b t.P.R.U.a.",
"- q p.@X1X-X Xr.v c N A I.T.I.H A N Z f.E.-.E O.-.;.:.1.2.X.Q 4 W < < # < < ; Q -.-.&.,.`.v.+X1XoX: t. X-X-X-XOXt.m b b b m l.a.",
"7 f a. XoX Xz.r.v c B H.XX~.@XOXZ N A a.d.E.E E #.#.@.+.< Q ; t X.q.:.:...X.# * y #.*.>.Q.<X<X<X+ t.r t.k.U.z.y.b b b b C l.OXR.",
"6 9 x z.$X$X=Xv.C v H &XE.H +X*Xf.N N Z i.E.E ....O.1 < E 1.7.:.%.2.:.$.{ { ..1 R *.+.>.~.=X&Xf.y.m b b m a.U.l.b l b b t.l..XR.",
"- 9 a.%X<X=X1X,Xz.Z f.&XE.z I.*XXXN N N Z I.I.y y 5 $ 4 5 5 X. . .X.0.$.$.X.2.8.y &.@.,.m k.l.k.m m n b i.l.OXR.n b l l C n P.OX",
"6 0 z.1X=Xu.=X1XoXr.d.*XE.N H &X&XZ N Z Z P.R.E ..W 1 =.} { $.0.w.w.w.fXX.%.G.4.*.=.&.` d d.OX.Xt.m n n i.d.R..Xt.l l l l l a.OX",
"6 0 Y.1XoXy.v.1X=Xy.i.*X+XN N &X&XZ z z N d.R.V y E t -.-.o...:.G.w.w.@.@.8.5.*.&.@.Q ' 7 Z +X+Xy.n n n n n d..Xa.b l l l l t..X",
"6 w Y.1X=Xy.k.1X<Xk.m &X&XZ N @X&Xi.z z n d.OXR.< y y O.#.-.O.E 2 < < } 5.2.-.,.R Q [ (.N d P.+Xd.n m n b z i.R.l.l b l l k n R.",
"6 8 k.<X<Xu.u.=X1Xz.l Y.*XR.z OXOXZ z z t.d.P.l.t.1 2 4 O.=.1.-.:.@.-.b.uX3.t Y T j *.9Xu g k.+XP.n n n b b t.R.P.l l l e k l R.",
"6 6 t.%X1Xv.u.=X<Xz.e C @X+XR.E.P.N z z Z Z C Z m t $ ; E <.dX0X7.G.0XdXdXR * & i +.<.9X+ o h XXR.n b b b z m U..XC l l e z t.U.",
"6 8 e oX1X=Xv.,X=Xy.k w C R.P.P.z z z z z Z Z Z & o.O @ ; 1 R &.@.<.4 E R $ * + ; -.=.9Xa $   ^ XXC z b l l t.U.XXl.t.l e l C t.",
"8 8 8 y.$X-X=X=X Xm k 0 d k C a.Z k z z N C C i . | * O @ @ # R < ; 1 1 @ * @ O +.>.=.9Xo @ ; @ ^.l.C b l m t.l.P.a.C k e w w b ",
"a.l 0 e y. X X Xy.l 0 0 d C P.XXa.k k z n C C i X | *.O X O X O @ @ O O O : O ; *.4.&.b.; X $ $ j U.a.n l l n b C n e e w w z i.",
"a.k 8 8 e r  X$Xv.b w 0 z Z P.XXl.k k l n i.H : o | O.*.: O X X O X @ . O < @.>.-.4.4.>.wXX   @ & [.b k z l l t.k.a.k k w w z t.",
"k 8 8 8 e  X<X1XoXm w 0 d N z U.P.l e k z C ( @ X O.>.=.=.t ; o o @ , +.1.>.1.1.3.3.4.>.b.y   < 1 V.nXz l l C i.l.l.b w w 0 w 0 ",
"P.a.0 8 C  X=X<X=Xy.d 0 d d d P.R.Z 0 k N ! i * X O.=.4.<.*.+.*.3.uXuX1.5.<.<.3.b.7.3.7.&.} . R F.^ ^.nXZ l n C a.l.C w 0 w 0 0 ",
"P.OXa.8 w y.u.=X=Xk.w 0 0 0 0 d.R.i.[.C.9XzXp p   =.<.4.4.<.*.>.=.9.yX3.8.<.<.e.n.n.6.3.&.o.o qX] s A.vXbXz k e C l.t.e 0 0 0 0 ",
"Z +XR.0 8 8 b =X<Xv.e w 0 0 0 i.|.i s MXp xXp ~ o %.1.5.7.<.>.=.<.*.-.b.b.4.b.m.n.n.8.6.<.%.o ~ _ / V.A.KXA.0 0 b l.a.0 0 0 0 0 ",
"7 OXOXd 6 8 e  X<X Xr e 8 H D.* F.xXxXlXjXBXs / $ +.1.8.b.b.<.<.4.-.4.b.b.b.n.M.yXn.8.9.2.@.# ! ~ DXA.C.KXKX^.bXk d.d.d 0 0 0 8 ",
"- R.OXZ 6 8 w U.<X$Xu.kXi i tX^ s zXxXlXxXNXs _ a 1 7.b.4.b.b.-.4.4.4.;.b.b.b.M.m.n.9.m.8.E 2 S._ HX~ A.KXKXA.V.^.nXP.Z e 0 0 0 ",
"6 P.OXC 6 6 e Y.|.i ^ h BX( p i lXxXxXs BXBXp S._ 3 3.b.b.b.b.4.<.4.4.4.b.b.b.M.b.m.uXaXuX2 zXS./ LX{.I KXKXJXJXA.V.V.nXL.0 8 8 ",
"% P.XXz 6 8 ` : p Y VXxXAXY Y Y lXxXxX~ BXBXY _ NXR y yXb.b.n.n.b.4.;.6.b.b.b.b.b.M.pXsXfX3 VXS.( GXA.A.AXPXHXA.A.JX[.[.V.[.}.d ",
"i.U.P.8 ! j Y ( ~ S.NXZXVXs ~ s lXxXxX! BXVX! ~ FXs y =.n.8.yXn.b.b.b.b.n.m.M.6.6.b.m.aX7.4 VX( _ VX^ A.JXHXKXA.A.s S.PXbXD.A.V.",
"i.i.K.s p xX~ ! ! S.VXZXVX! ! F.xXxXlXp BXVX/ ~ LXs qXy =.b.b.yXpXm.m.n.m.m.b.n.yXaXaXdXE tXSX/ s wXkXA.A.HXKXbXG [.~ ZXZXGXJXC.",
"7 G p xXNXNX( / ! zXVXZXBXY / AXBXxXY s BXVXS._ LX] ~ 5 y 4.b.pXaXfXm.m.m.M.M.m.aXaXaX0Xt VXGX~ ~ D.jXA.A.KXPXJXA.( ( SXVXZXbXA.",
"p _ s xXNXVXS.s / NXVXHXeXs Y VXVXxX~ ] VXVX~ ~ ; : ) zXy +.8.sXaXaXM.M.M.N.M.N.fXfXgX+.s SXSX/ Y S.JXA.[.D.KXKXS.i ( NXDXZXMXA.",
"F.) Y CXDXVX_ / / VXDXLXS.! s SXVXNX) / VXFX_ * $ zX~ NX,.o.3.iXfXhXgXgXgXgXfXgXfXdXo.R HXSXGX( / S.LXS.S.] PXAX! p ! mXDXZXlX( ",
"/ / S.FXSXNX_ ~ _ VXHXLXS.s ~ GXVXNX) ! s VX1 : ) a 9X~ * T -.M.fXhXhXhXM.fXgXm.m.@.} HXIXIXIXBX~ _ i jXD.! HXKXS.A.p DXSXSXxX( ",
"~ ^ F.HXHXxX_ / _ VXLXHX~ s / GXVXxX~ S.GXD.F.xXxXi p Y mXIXtX9.fXsXfXN.M.fXb.b.6.#.xXHXZX] IXS.Y ] O . O A.HXJXlXS.a CXSXDXBXY ",
"ZXlX( FXHXNX) S._ VXIXHX~ ~ F.GXBXVX/ Y s FXSXBXMX~ p MXNXDXFXzX#.b.b.b.fXM.b.M.uX%.GXGXS.HXLXS.ZX~ p s ~ eXtXPXlXD.p VXDXDXSXY ",
"VXGX~ DXFXNX/ / / SXLXHX~ s xXGXGXGX! _ ~ SXHXHXCXY : DXCX[ p p DXb.-.b.M.M.M.M.5.xXHXS.HXGX( S._ s s i Y VXGXGXD.] s VXDXDXSX: ",
"VXHX~ SXSXxX! / / SXLXHX! / VXGXLXSX) S._ GXHXLXSXS.Y BXLXNX~ 1 T NX#.b.M.M.N.b.@.VXS.HXHXY / tX( ! ! s / ZXHXHXMXS.) FXFXFXDXs ",
"ZXBX^ F.GXxX_ S.F.GXHXDX~ ( ZXHXLXGX_ _ ~ HXGXGXlX_ / _ LXZX! `.` zXIXO.M.M.b.b.VX! SXSX_ _ / _ MXs p s _ GXHXHXVX( ) DXFXFXZXp "
};
