/* XPM */
static char *_dcb839b23774fa6f7e2d7c91351cd47Tr880YoohYbsdwPI[] = {
/* columns rows colors chars-per-pixel */
"64 64 251 2 ",
"   c #050505",
".  c #080609",
"X  c #0C0B0C",
"o  c #110D0E",
"O  c #0D0C12",
"+  c #090C16",
"@  c #100F15",
"#  c #160F16",
"$  c #0D1215",
"%  c #071A13",
"&  c #0F131C",
"*  c #121214",
"=  c #14141A",
"-  c #18171D",
";  c #15191D",
":  c #1B1A1C",
">  c #241B1B",
",  c #1F221E",
"<  c #131521",
"1  c #181623",
"2  c #151924",
"3  c #1B1A25",
"4  c #131428",
"5  c #1C1D2A",
"6  c #18192C",
"7  c #221F26",
"8  c #201E2C",
"9  c #211E31",
"0  c #1A2826",
"q  c #1D222D",
"w  c #063627",
"e  c #0B3B2B",
"r  c #12312B",
"t  c #1E2132",
"y  c #0C3C32",
"u  c #252327",
"i  c #23222D",
"p  c #38292A",
"a  c #242433",
"s  c #262736",
"d  c #2B2B35",
"f  c #282538",
"g  c #272A3B",
"h  c #2C2B3D",
"j  c #332D38",
"k  c #293137",
"l  c #36333A",
"z  c #503231",
"x  c #6F3D32",
"c  c #06442C",
"v  c #0B4532",
"b  c #0A4B35",
"n  c #15483A",
"m  c #075635",
"M  c #0E5737",
"N  c #0C523B",
"B  c #035C3B",
"V  c #0B5A3A",
"C  c #22433C",
"Z  c #03633D",
"A  c #066839",
"S  c #07773E",
"D  c #68413C",
"F  c #1A2E49",
"G  c #2B2B42",
"H  c #312E41",
"J  c #2E3143",
"K  c #343345",
"L  c #373748",
"P  c #39364A",
"I  c #3C3A4D",
"U  c #393952",
"Y  c #413E53",
"T  c #194C43",
"R  c #0C5841",
"E  c #1A5345",
"W  c #175848",
"Q  c #1A5950",
"!  c #23564B",
"~  c #2D4A51",
"^  c #265954",
"/  c #046C43",
"(  c #096844",
")  c #076F4C",
"_  c #15644A",
"`  c #057146",
"'  c #05734B",
"]  c #0A744C",
"[  c #077B4A",
"{  c #15744D",
"}  c #0E6E53",
"|  c #1C6452",
" . c #1B6B56",
".. c #0A7551",
"X. c #067D52",
"o. c #0B7A54",
"O. c #0E7D5B",
"+. c #157657",
"@. c #137D5C",
"#. c #276559",
"$. c #23735D",
"%. c #077062",
"&. c #197D61",
"*. c #2C6B62",
"=. c #336765",
"-. c #287767",
";. c #35736C",
":. c #377872",
">. c #494348",
",. c #4C4753",
"<. c #654846",
"1. c #755253",
"2. c #565061",
"3. c #716D77",
"4. c #87261F",
"5. c #8D564C",
"6. c #855C55",
"7. c #8A625C",
"8. c #98665C",
"9. c #AE6758",
"0. c #8A6864",
"q. c #976A66",
"w. c #96736F",
"e. c #AB756D",
"r. c #A67A75",
"t. c #C37C75",
"y. c #06864A",
"u. c #078857",
"i. c #0B845B",
"p. c #15835B",
"a. c #07955B",
"s. c #12975C",
"d. c #0AA45B",
"f. c #0B8C61",
"g. c #1B8364",
"h. c #128D63",
"j. c #198867",
"k. c #0A9866",
"l. c #159569",
"z. c #1D8C73",
"x. c #1A9973",
"c. c #27866B",
"v. c #2A8974",
"b. c #348876",
"n. c #2D9676",
"m. c #299678",
"M. c #0AA666",
"N. c #14A669",
"B. c #17A778",
"V. c #0CB571",
"C. c #16B777",
"Z. c #26AC7C",
"A. c #11C57A",
"S. c #918777",
"D. c #AA817D",
"F. c #B8857B",
"G. c #C3867B",
"H. c #716E8A",
"J. c #A37881",
"K. c #D07A8B",
"L. c #349984",
"P. c #1DAD84",
"I. c #11B585",
"U. c #19BA87",
"Y. c #29AA85",
"T. c #24B986",
"R. c #33B393",
"E. c #4BB39C",
"W. c #19C789",
"Q. c #1AD485",
"!. c #16CF95",
"~. c #1BCA94",
"^. c #1DDC9C",
"/. c #27C789",
"(. c #2FCD8F",
"). c #27C798",
"_. c #27D798",
"`. c #34D998",
"'. c #29E195",
"]. c #36E59B",
"[. c #35CFA7",
"{. c #28D8A4",
"}. c #36D9A9",
"|. c #2AE3A6",
" X c #38E5A9",
".X c #3AE6B2",
"XX c #40CA96",
"oX c #43D3AF",
"OX c #45DAB3",
"+X c #46EAAA",
"@X c #52EEAC",
"#X c #47E8B7",
"$X c #54EABA",
"%X c #59F2B8",
"&X c #6AEDB9",
"*X c #66F5BB",
"=X c #76F7BE",
"-X c #59EAC3",
";X c #5FF1C0",
":X c #6CEEC5",
">X c #6AF5C3",
",X c #69F8C5",
"<X c #77F9C7",
"1X c #7CFCCB",
"2X c #7BF9D2",
"3X c #B98984",
"4X c #B28F8C",
"5X c #A4A2A9",
"6X c #C68D85",
"7X c #D28A8E",
"8X c #C99589",
"9X c #D4988C",
"0X c #CA9995",
"qX c #D39D94",
"wX c #D69B98",
"eX c #C9A09D",
"rX c #D4A296",
"tX c #DBA295",
"yX c #D6A39B",
"uX c #DBA39B",
"iX c #DBA99E",
"pX c #E2A89B",
"aX c #D99DA3",
"sX c #D6A7A6",
"dX c #D9A4A2",
"fX c #DEACA3",
"gX c #D7ADB1",
"hX c #E3ABA6",
"jX c #E3B1A6",
"kX c #E6B4AC",
"lX c #EBB6AB",
"zX c #EFB3AE",
"xX c #E8B7B5",
"cX c #EDBBB3",
"vX c #F4BCB8",
"bX c #F7C4BE",
"nX c #EABBC2",
"mX c #86FCC8",
"MX c #83FCCD",
"NX c #95FDCD",
"BX c #8CFED2",
"VX c #8AFDD6",
"CX c #96FDD4",
"ZX c #95FDDA",
"AX c #9BFEDC",
"SX c #A4FEDE",
"DX c #ACFDDC",
"FX c #AAFDE2",
"GX c #B4FDE6",
"HX c #F3CCCC",
"JX c #E2E1E1",
/* pixels */
"NXNXA.A d.mXNXA.M C U.$X'.} j. X~.T n n T ! &.&.#.^ ^ ! ! =.=.;.OXBXGXAX(.-.$.$.*.x./.m. . .z.~.B..._ C.;X.Xy.( k.+X Xy.) ` ` y.",
"mXNX@XS d.mXNX'.M e _ `..X{.{._.+.T T ~ T ! E *.-.c.&.#.^ =.*.b.$X<XCXFX$X:.-.-.*.m.).B.+. .&./.U.{ } a..X$XM.) k..X{.' ) / ..V.",
"*XDX=XA.V.mXNXA.c e v A U.).U.j.E T T ! ~ ~ $.v.&.v.L.v.u - % X -.Y.:XSX&Xn.;.-.-.m.).T.-.+.&.W.U.p.{ { {.$X_.@.I.|.~.' ' ' ' f.",
"A.mXNX*X@XNX=Xs.c v C e n M p.W.p.E E ! ! ^ -.v.*.*.z.t n l * X * $ k E <Xc.:.b.-.b.R.).m.$.$.T.W.j.+.{ l..X#X{._.{.k.X.] ' X.' ",
"A @XNXNXmX=XQ.S v y y n T { $X1X`._ ! ! ^ ^ n.m.=.=.:.o o d ; *   X #   . X o % c.c.Y.(.Y.@.&.T.U.j.+.{ @.N.^.{.~.C.u.y.[ [ [ [ ",
"e S A.@X].A.u.( v y T n _ +XBXAX%X$.! ^ ^ =.n.b.y ~ X . o X o o Y 0 > u : : , l 0 *.b.[.R.m.c.T.U.-.+.@.@.p.u.M._. X_.M.u.y.X.u.",
", e A S _.@X%X_.{ n N E /.=XBXAX=Xc.^ ^ =.=.L.n 7 o I . X X * X   7 > o $ : > : o % ~ L.[.T.T.T.B.p.p.p.p.i.V.=XMXCXAX*XN.y.y.k.",
"w w M ].=X,X1X1X|.M n N ~. X`.BXBXT.#.^ =.=.% u i u * u j X   X   o ~ . . o o * o , : 0 Y.T./.C.Z.N.l.p.p.s.%XNXMX,XSXFX+Xa.u.i.",
"r w N.MX,Xd.+XCXmXC.n N W $.l.mXCX`.*.=.=.^ : o X d * * $ $   X 3 < 3 i X X 2.X ,.o u u M (.&X=X=X@XC.s.p.N.BXAX].V.,XGXBXV.y.o.",
"w e _.BX%XA p.1XCX+X_ E E E $.*XCX$Xc.=.;.k o o X X * l ; ,   l ,.i h u o >.: , l , , * % mXNXDXDXNX@XV.l.A.AXSXQ.d.'.AXAX'.a.X.",
"w w `.ZX%XS V +XAX,Xp.E E ! | @XCX1Xn.;.;.=.o X X o j > > p D , p p p u p , * l p u > * o mXCX=XNXGXNX/.N.A.AXFX].s.C.BXFX%Xa.[ ",
"r w _.AX<X[ M /.BXMXC.E E ! ^ `.CXBX/.:.;.# o o X o p q.5.> D.F.F.F.F.F.F.8.0.z : d k p n ; NX`.=XGXDX%XN.W.BXDX%Xd.N.<XGX<XM.y.",
"w r A.ZXMXM.V s.MXCX`.W ! ^ ^ Z.MXCX+X:.:.o o o   z D G.F.F.e.G.F.3X8X8XtX9XG.9.z X >.> d { =X(.`.SXGXmXA.C.BXGX<XM.d.%XGXMXM.u.",
"w w s.1XCX_.M { =XZX X| ! Q ^ c.mXSXMX$XE.* % % o z G.tX9X3XG.9XrX8XqXyXpXiXtX9X7.p u u d n C /.Z.mXGXNXQ.N.,XGXBXC.d.+XFXVXV.u.",
"r w V *XAX@XS _ %XZX.X_ Q W $.OXBXDXCX<Xp.z u 6.8.9XpX9XqX8X6X8X8X0XqXiXpXpXpX9XD z : 0 p *XNX`.Z.=XGXDX].N.|.FXAX].M. XSXMXd.u.",
"w e v |.CXmXV._ %XBX`.W ! ! m.$XMX&X#XXXr o <.5.9XrXG.9X9X3XF.3X3XG.8XtXiXpXpX9XF.p = l >.*XDX@XA.@XDXDX+XN.C.MXGX1XQ.*XAX*Xa.u.",
"w r y i.<XNX%XQ.MXMXC.Q Q ! #.Y.n.Y.E.L.b.u 6.7X9X8X3XF.eXrX6X3X8X0XdXdXqXtXuXfXjX<.> >.XXBXGX=X/.].DXDX@XM.k. XZXFXBXMXMX_.a.y.",
"w w y N _.1X1X<X*X}._ E ! ^ #.$.R.OXoX-X-X1 e.7X3X>.2.> >.4XdXdXsXsX4X4X0.e.fXjXkX1.z : (.DXGXCX`.+XSXDX Xl.s.M.+X<XMX,X|.d.a.u.",
"m c y y M C. X|.U._ W E E ^ Q z.+XOXR.-X:XR 6X3XS.gX7.<.z z gXsXsXJ.j 7 ; 3.w.fXjXyX,.d n.mXGXDXmX<XDXNX/.l.f.s.M.A.A.Q.!.M.u.u.",
"i.R e y b N N { @.g.+.W Q Q ^ R.;X[.:.R.2X>Xr.8XsXbXdX0X8X6XxX9XHX0X3X3XsXkXgXdXjXrX<.- n.(.BXGXDXAXNX*XC.h.h.f.u.k.W.<X<XA.a.u.",
"( v e v y N  .h.h.x.B.p.^ Q ^ [.:X[.;.:.$XMXq.7XiXgX5X* 3.5.tXG.jX7Xz : # 5.cXzXtXyX0.% L.Y.[.<XBXMX$XA.x.h.h.f.f.C.,XSXSX'.k.u.",
"e e c y v n h.l.( +.C.P.&.Q | [.:X[.=.;.[.MX7.6X8XsXgX8.q.5.9X7XpXq.x > z 8.6XzXtX8XJ.L.L.m.m.T./.C.T.B.j.j.h.i.k..X,XZXFX*Xk.u.",
"[ c c e v R x.h.N T j.U.z.Q ^ R.2XOX-.;.r.5.8.wXiXF.e.F.6X8X9X7XzXhX8Xe.qX6XtXpXtX6X4XL.L.L.L.x.Z.)..XW.h.h.h.f.k.{..X%XFX<XM.u.",
"N.e w w y N l.p.n n _ B.x.| Q m.-X#X;.=.qXpXt.wXcXrX8X6X8XG.9X7XwXpX9Xe.6XdXkXpXpX8X9X9XS.v.g.c.B.)..XU.p.o.o.@.O.k.a.!.VX1XM.y.",
"_.c c e e N k.h.T n T x.B. .W &.#X-XL.#.kX9XG.qXfXuXdXaX6XwXhXaXzXpXhX7X6XwXhXaXpX9XjXHXt.-.&.z.P.I.{.U. .} } } } } o.a.*X1XC.[ ",
"*XS v c v W B.I.] W W x.).j.| *.OX2X}.:.sXt.e.pXxXhXrX0XwXnXxXnXnXvXaX6XxXzXvXcXtXqXG.bXzXb.z.L.Y.P.[.[.x.%.O.O.o.o.X.h.*XZX}.u.",
"1Xa.b v v N N.I.p.T W j.T.x.| | R.2X:XL.4.9.hX9XxXaX3XsXHXeX0XaXHXnXzX0Xr.HXHXvXtXtXG.HX7Xn.v.v.z.z.~..XB.@.@.O.o.o.O.o..XZX%Xa.",
"BXA.b v y b i.U.h.R R @.U.m.| #.&..X;X-XrXt.9X8XuXqXD gXsX0X6.3XeXgX4X4X7.iXvXzXqXvX9XHXlXb.v.c.z.&.P.}.U.@...O...o.O.X.Q.BXmXd.",
"CX Xm c c b ( C.B._ R &.U.z.| | | v.[.#XoXjXtX0XrX9XD aXK.r.K.aXnX7XgXnXD.dXcXhXwXzXjXcX,XY.v.z.&.j.x.{.~.@.O.......' X.V.2XVX.X",
"ZX*XS b v v N h.C.k.( l.B.&.W | |  .$.v.x.5X5.rXtXtXe.q.JXJXJXJXHXJXJ.z q.tXtXlX9XxXvXgX2XR.-.g.&.&.z.{.!.i.........' a.|.VXAX,X",
"MXMXa.m b b b ( B.x.l.x.l.} W | |  .#.$. X1X$X8XrXqXe.kXaX7X7XK.K.aXaXvXr.tXpXlX4Xv.L.-XVX[.c.&.&.&.j.~.^.B.O.....} X.I..X,X*X X",
"mXBX'.u./ b b N ( h.f.O.} W | | |  .&.[.BXFXMX8X9XrXfXxXvXhXaXgXnXHXHXxXhXhXpXtX[.:.-.oX2X.Xz.g.&.&.f.U.}.!.B.f...' ' M.W.V.a.M.",
"1XSX<X XN.N N N N R %.U.~.I.+.| |  .m.*XMXSXZX).6XrXrXkXhXzXaXaXnXnXcXvXkXfXrXuX-Xv.-.[.2X.X&.&.&.j.x.~.|.~.I.f.) ' ) ` [ u.{..X",
"=XBX*X|.f.N b N R g.{.|..X-X).+.Q _ U. X XVXAX+XF.9XuXxXxXaXwXwXpXzXvXHXlXfXyXuX2XU.z.[.:X[.j.&.&.j.x.I.V.k.O.' ..) ` / [ ^.,X2X",
"'.A.M.u./ m N N b ).#XU.P.-X,XU._ | $.z.j.<XSX;XrXq.6XsXxXgXwX0XaXnXnXeXiX8X3XuX2X-X).OX-XP.&.&.&.O.f.%.i.i.O.....) ' ' I..X,XVX",
"N. X%X*X_.[ V N ) $X#X+.W {.:X.X+.W _  .+.#XAX%.tX8Xe.e.eXgX0XwXnXzXhX7XF.8XlXpX-X-X#X.X).j.&.&.&.O.O.f.f.f.f.f.X.) ] X.W.^.!.2X",
",X,X<XBXMX^.( V } %X-XO.R z.*X>Xl.} Q _ { (.<X  yXrXF.F.e.7.r.3X3X0.r.8XrXfXcXtX= ).).P.j.&.&.&.O.O.O.l.f.o.f.k.u.' ` ` u.[ k.,X",
"BX+Xd.*XFX<Xd.V ( %X-Xh.V _ #X<XW.W W W | N.3 X iXjX0X3X6Xq.D z <.q.3XqXrXkXzXqXX 3 g.Y.P.O.@.O.O.o.f.k.i.....k.k.X.' ` ' ` u.;X",
"BX_.A A.VXZX_./ ( .X,XI.V R [.,X{.R R Q _ p.= X iXdXjXF.8XyX6Xw.F.8XqX9XfXhXlX9X. * 3 }.{.h.@.O.O.o.h.l.i.' ..f.k.u.` ` ' ' X. X",
"AX`.B S ,XFX%X[ R {.<X).R R I.,X.X_ R _ W 0 = = fXfXfXrXfXrXqX0XrXlXjXiXkXkXlX8XO X & E .Xx.+...O...f.k.i.....i.k.a.' ` ` ` ' !.",
"AX+XA A ].SX<Xy.V I.>X.X' N x.,X|.W R ( _ 7 < : uXhXjXfXjXkXyXwXdXkXxXlXbXjXlX# 7 X * ; .XI...@.O...O.k.f.) ....a.f.X.` ) ) ` M.",
"AX<Xy.m A.AXZXV.B  .$X,XI.V B.-X{.R R R l q 7 8 z jXjXjXfXkXsXwXdXcXlXcXcXlXjX; ; 1 O O i ~...} ....o.k.f.X...X.u.k.' ' ) ' ' u.",
"ZXMXV.m s.BXBXA.m B !.,X.XB.{..XU.R 2 X j a a 7 ; 0XkXfXdXiXyXsXgXjXcXcXlXlX3X7 * = @ @ = Z.O.] ' ..' f.k.X.' ' u.k.' ' ) ' u.!.",
"MXZX`.A u.MXZXA.m m ) }.#X|.{.^.q = . 5 a i u @ a D eXjXiXrX0X0XrXrXkXlXjXdX. L O 5 = @ ; 0 f.' } ..) O.k.X.' ' u.f.' / ) ' k.^.",
"@XAX*Xa.d.MXMXd.m b m ' U.~.W.* 5 $ X h 7 u u   7 ; 6.0XiXrX0X3X0XfXfXjXyXr.- @ . & - @ = - a < ' ) ) ' f.f.u.' i.y.` / ) / i.k.",
"C.<XNX%X%XMX@X` m c b / [ $ 2 + a & . l h i u & $ 3 1.w.r.yX0X3X0XjXkX3X4XX 8 3   O = 5 = 3 d 1 4 ..) ' [ u.i.X.X.` / / ) / / ' ",
"m `.MX<X*X$XM.Z m m m = * $ O d h #   h 3 5 i 5 X : s w.0.7.0X0XsXsX3X4X<.3 d X   O X 2 7 3 3 3 1 q 2 ` ` ] ' ' ' / ( ( / / / u.",
"c m N.W.Q.A.y.Z m m $ * - = O = P 2   I t 7 i 8   ; 3 z w.<.0.3X4XD.4X4X. h 1 X   $   t H 3 i i a 3 2 5 $ Z / ' a.X./ Z / / / a.",
"c c m A _.*X^.S r O * 6 a 7 O . H &   H H 3 3 = . =   = w.6.1.1.q.r.4Xz = 1 O *   O O 5 L 3 7 5 i X 1 3 t * 6 0 W.k.Z / ( Z ) k.",
"w c A A.1XSX* $ * * 6 * = a = @ h O   P Y 5 * & . 1   = q.w.q.q.q.1.p * 1   $ O   $ O g t H 3 - 3 & 3 8 f # 3 8 5 { / ( Z Z A k.",
"c c M.*X .s 3 = O * < 4 = = - @ < &   K h O O * = 1   X = D.r.0.<.. - X   = @ O   + O 2 P 6 2 6 6 G . K = 1 H a 5 < n Z Z Z Z a.",
"c c ~.b a j q < = * # * @ = 1 O   & # ,.L 3 O = = *     + . 3X<.. * = @ s $ X O . & O 2 U 5 2 6 a g a 5 = d H H a I P ( Z Z Z u.",
"w c y.O K i i d 8 2 3 @ 3 - = X   & . G P g t 5 - - + O O . X . = = 1 O = + + X   < & q P 2 t P h ,.U 6 9 9 K s 4 ,.2 4 Z B Z [ ",
"w c L # I < K K q a 3 f g h 8 # . <   g P a a q h g s . O O O . 3 1 = 3 $ O O @ * ; 6 q H t P = & L U t g G H 6 g U 5 P Z B Z Z ",
"c w k . L a h I i l f 8 g g H 3 O 2   t K 9 q 9 s K 5 O O O . = 2 - X 7 $ O @ O & a g h h f g G 2 f U 5XG K P h K Y 3 ,.B B B B ",
"A w ~ u i O a U J U h g g f P d . O   H L t J h h G P i O O   < 1 O O 5 @ O O + s 2 K f a 6 + U G ~ 6 f G h h f a 1 L L L Z B B ",
"[ ~ 8 P O >.G Y h ~ h h h 9 G P t +   f 1 6 t g 4 t f H.+ O = ; < @ @ 3 @ O = J g J f I t H G g 5X& & f J P H + i O Y Y G Z B B ",
"k.I l P 2   U H U 2.j f f 3 a J a . X K 6 h g t U U U J O X ; H.# O = 3 @ @ = 9 6 f J s P K Y F & < 2 G J Y G O I g U 5 Y < / R ",
"k.L L H < X < d Y Y G G s 1 3 Y t   t L g I nX4 q 6 3 H 2   1 = = O = - O O * a a 2 q U g U 3.a 6 2 < g h H H u ; U 9 P U 6 m B ",
"f.G Y 9 8 5 q g f 1 9 H a 1 a H <   K t 5Xd t t a s I d I   6 $ = $ = = $ O d J q s 6 t 3.& t F 6 6 & f J I < G a K P I 5 J < c ",
"L L ~ Y K j O K I a X h & 2 2 g < = h H.5 a K H K a + 4Xs   6 + & = & ; $ + K h 2 s q U + < 2 s t 2 & f L L   J H U < I i 6 3 m ",
"L K j Y Y q i < 3 G & h = 2 X t < P 5Xt a s 8 1 K h d a P . ; # & $ $ - $   i a 2 4 G 6 $ & 2 t t 2 = a s < 6 a H 5 P f I * K Z ",
"P f P Y h L + 1 2 6 & a < 2 K q < 3 K K i a l K a K a k O   = * & % @ $ $   6 3 $ U 6 6 + & q a 2 6 = f f O 8 g 1 1 Y = a s 3 f.",
"h 8 P d K i h + = 5 & h < & K 5 + & K d g q     . @ @ O O X = O $ o $ O +   2 2 < t q t $ 2 t t 2 2 * G $ = h a 8 5 H K a 6 s q "
};
